# xmcd
#
# Track frame offsets: 
#        150
#        18704
#        40521
#        58308
#        77227
#        92543
#        110508
#        127093
#        144944
#        164158
#        179172
#
# Disc length: 2582 seconds
#
# Revision: 0
# Processed by: cddbd v1.5.2PL0 Copyright (c) Steve Scherf et al.
# Submitted via: ExactAudioCopy v1.3
#
DISCID=9e0a140b
DTITLE=The Lil' Smokies - Tornillo
DYEAR=2020
DGENRE=Bluegrass
TTITLE0=Fortunes
TTITLE1=Carry Me
TTITLE2=World's on Fire
TTITLE3=True Blues
TTITLE4=Wheel on the Water
TTITLE5=Life Out There
TTITLE6=Sharpest Edges
TTITLE7=Always, Now, Never
TTITLE8=Giant
TTITLE9=Blood Money
TTITLE10=Tornillo
EXTD=
EXTT0=
EXTT1=
EXTT2=
EXTT3=
EXTT4=
EXTT5=
EXTT6=
EXTT7=
EXTT8=
EXTT9=
EXTT10=
PLAYORDER=
